<svg width="213" height="73" viewBox="0 0 213 73" fill="none" xmlns="http://www.w3.org/2000/svg">
<path fill-rule="evenodd" clip-rule="evenodd" d="M208 5H5V68H208V5ZM0 0V73H213V0H0Z" fill="#101935"/>
<path d="M31.4354 55.9457H14V15.9149H19.1057V50.84H31.4354V55.9457Z" fill="#101935"/>
<path d="M49.9269 15.9692V21.0749H38.4663V33.4046H49.9269V38.5103H38.4663V50.8943H49.9269V56H33.3606V15.9692H49.9269Z" fill="#101935"/>
<path d="M53.5699 15.9149H76.2196V21.0749H67.4747V55.9457H62.3147V21.0749H53.5699V15.9149Z" fill="#101935"/>
<path d="M78.6061 42.0408H83.7118V44.5937C83.7118 46.9292 84.1463 48.613 84.961 49.645C85.124 49.9166 85.4499 50.1339 85.9387 50.4054C86.4276 50.677 87.1337 50.84 88.1657 50.84C90.121 50.84 91.2073 49.8623 91.8591 48.6673C92.4566 47.4724 92.5652 45.9515 92.5652 44.8652C92.5652 42.9642 91.9135 41.7149 90.9901 40.7915C90.0667 39.9225 88.8175 39.325 87.6768 38.8362L86.6991 38.4017C85.5585 37.9128 83.6031 37.0981 81.865 35.4143C79.6924 33.296 78.6061 30.6345 78.6061 27.3755C78.6061 23.9537 79.5295 21.0749 81.2676 19.0652C82.9514 17.1099 85.3412 15.9149 88.1657 15.9149C92.0764 15.9149 94.249 17.5987 95.3897 19.0652C96.9648 21.0749 97.7252 23.845 97.7252 27.3755V29.9284H92.5652V27.3755C92.5652 24.2795 91.8591 22.5958 90.9358 21.8353C90.0124 21.0749 88.8718 21.0749 88.1657 21.0749C86.0473 21.0749 85.0154 22.2155 84.4179 23.6278C83.7661 25.04 83.7118 26.6694 83.7118 27.3755C83.7118 29.2766 84.3636 30.5259 85.2869 31.5035C86.2103 32.4812 87.4596 33.1873 88.7631 33.6762L89.6322 34.0564C90.6642 34.4909 92.6196 35.197 94.3577 36.8808C96.5846 38.9448 97.7252 41.6063 97.7252 44.8652C97.7252 51.0029 94.3033 55.9457 88.1657 55.9457C81.8107 55.9457 78.6061 51.7633 78.6061 44.5937V42.0408Z" fill="#101935"/>
<path d="M104 56.0851V16.0543H111.984C118.883 16.0543 122.141 20.2909 122.141 27.6236V44.4615C122.141 51.7941 118.883 56.0851 111.984 56.0851H104ZM109.106 21.16V50.9794H111.984C113.288 50.9794 114.537 50.8164 115.461 49.9474C116.33 49.0783 116.981 47.4488 116.981 44.4615V27.6236C116.981 24.6362 116.33 23.0067 115.461 22.1377C114.537 21.2686 113.288 21.16 111.984 21.16H109.106Z" fill="#101935"/>
<path d="M143.846 56.0307H138.686V44.1899C138.686 40.6594 137.002 38.9213 133.58 38.9213H130.376V56.0307H125.27V16H133.58C140.479 16 143.738 19.9651 143.738 27.4063C143.738 31.0998 142.923 33.9242 141.348 35.8253C141.293 35.8796 141.185 35.9882 141.13 36.0968C141.022 36.2055 140.913 36.3141 140.804 36.3684C142.76 38.2695 143.846 40.8766 143.846 44.1899V56.0307ZM130.376 33.7613H133.58C134.938 33.7613 135.916 33.5983 136.459 33.2724C136.948 32.9465 137.274 32.6749 137.437 32.512C138.252 31.48 138.632 29.7962 138.632 27.4063C138.632 24.7448 138.197 23.1697 137.383 22.2463C136.514 21.3773 135.264 21.16 133.58 21.16H130.376V33.7613Z" fill="#101935"/>
<path d="M154.655 56.0851H149.549V16.0543H154.655V56.0851Z" fill="#101935"/>
<path d="M170.849 42.8863L177.638 16H182.907L172.858 56.0307H168.839L158.899 16H164.168L170.849 42.8863Z" fill="#101935"/>
<path d="M200.502 16.0543V21.16H189.041V33.4897H200.502V38.5954H189.041V50.9794H200.502V56.0851H183.935V16.0543H200.502Z" fill="#101935"/>
</svg>
